<svg xmlns="http://www.w3.org/2000/svg" version="1.1" xmlns:xlink="http://www.w3.org/1999/xlink" xmlns:svgjs="http://svgjs.dev/svgjs" width="256" height="256"><svg id="SvgjsSvg1001" data-name="Ebene 5" xmlns="http://www.w3.org/2000/svg" width="256" height="256" viewBox="0 0 256 256">
  <path d="M149,103.48c-11.16-4.44-23.32-6.91-36.06-6.91-10.56,0-20.72,1.7-30.25,4.8l45.31,30.32,21-28.22ZM165.54,111.98l-37.54,65.93-51.11-74.44c-11.32,4.5-21.6,11.06-30.37,19.21,26.36,67.58,81.48,115.31,81.48,115.31,0,0,42.2-36.54,70.41-90.93-7.87-14.26-19.21-26.32-32.87-35.08Z" fill="#007d49" stroke-width="0"></path>
  <path d="M128,18c-52.59,0-95.22,36.05-95.22,36.05,0,2.2.1,4.37.19,6.54,9.52,15.99,23.47,29.02,40.17,37.41l-3.84-5.59,15.96,10.68c9.92,3.4,20.54,5.27,31.61,5.27s22.47-2,32.69-5.63l48.54-65.22c-17.4-9.48-42.36-19.5-70.1-19.5ZM205.53,41.77l-23.9,41.97c12.1-10.75,21.51-24.45,27.09-39.99-1.03-.65-2.07-1.3-3.19-1.98Z" fill="#ffb20d" stroke-width="0"></path>
  <path d="M131.69,18.16c-4.07,10.74-6.31,22.38-6.31,34.54,0,21.46,6.95,41.29,18.69,57.4l54.03-72.6c-16.62-9.05-40.17-18.5-66.41-19.34ZM205.53,41.77l-47.62,83.63c11.4,10.2,25.21,17.77,40.47,21.74,14.18-27.31,24.85-59.11,24.85-93.09,0,0-6.55-5.54-17.69-12.28Z" fill="#00a0e5" stroke-width="0"></path>
  <path d="M117.86,163.15l-48.56-70.73,58.7,39.29,26.71-35.89c-11.24-26.72-49.13-46.38-94.16-46.38-8.43,0-16.61.69-24.41,1.98-2.18,1.64-3.36,2.64-3.36,2.64,0,46.11,19.62,88.22,41.04,120.5,16.31-1.43,31.33-5.45,44.04-11.4Z" fill="#ff0081" stroke-width="0"></path>
</svg><style>@media (prefers-color-scheme: light) { :root { filter: none; } }
@media (prefers-color-scheme: dark) { :root { filter: none; } }
</style></svg>