<?xml version="1.0" encoding="UTF-8"?>
<svg xmlns="http://www.w3.org/2000/svg" width="300" height="50.76" viewBox="0 0 300 50.76">
  <path d="M26.85,19.74c-2.57-1.02-5.38-1.59-8.32-1.59-2.44,0-4.78.39-6.98,1.11l10.45,6.99,4.84-6.51ZM30.67,21.7l-8.66,15.21-11.79-17.17c-2.61,1.04-4.98,2.55-7,4.43,6.08,15.59,18.79,26.59,18.79,26.59,0,0,9.73-8.43,16.24-20.97-1.81-3.29-4.43-6.07-7.58-8.09Z" fill="#007d49" stroke-width="0"/>
  <path d="M22.01.02C9.88.02.05,8.34.05,8.34c0,.51.02,1.01.04,1.51,2.19,3.69,5.41,6.69,9.26,8.63l-.89-1.29,3.68,2.46c2.29.78,4.74,1.21,7.29,1.21s5.18-.46,7.54-1.3l11.2-15.04C34.16,2.33,28.41.02,22.01.02ZM39.89,5.5l-5.51,9.68c2.79-2.48,4.96-5.64,6.25-9.22-.24-.15-.48-.3-.74-.46Z" fill="#ffb20d" stroke-width="0"/>
  <path d="M22.86.06c-.94,2.48-1.46,5.16-1.46,7.97,0,4.95,1.6,9.52,4.31,13.24l12.46-16.74C34.34,2.43,28.91.25,22.86.06ZM39.89,5.5l-10.98,19.29c2.63,2.35,5.81,4.1,9.33,5.01,3.27-6.3,5.73-13.63,5.73-21.47,0,0-1.51-1.28-4.08-2.83Z" fill="#00a0e5" stroke-width="0"/>
  <path d="M19.67,33.5l-11.2-16.31,13.54,9.06,6.16-8.28c-2.59-6.16-11.33-10.7-21.72-10.7-1.94,0-3.83.16-5.63.46-.5.38-.78.61-.78.61C.05,18.97,4.57,28.68,9.51,36.13c3.76-.33,7.23-1.26,10.16-2.63Z" fill="#ff0081" stroke-width="0"/>
  <path d="M115.19,38.93h-.01c-.25-.3-.56-.56-.95-.75-.38-.19-.82-.28-1.34-.28-.46,0-.88.08-1.27.25-.39.16-.67.43-.84.8h-.02v-3.41h-1.09v9.1h1.09v-.88h.02c.12.2.27.36.45.49.18.13.36.23.55.32.2.08.4.13.6.16s.39.05.54.05c.5,0,.94-.09,1.32-.27.38-.18.69-.42.95-.74.25-.3.43-.68.56-1.09.12-.42.19-.86.19-1.32s-.06-.91-.19-1.32c-.13-.42-.32-.78-.56-1.1ZM114.69,42.25c-.07.3-.18.57-.33.82-.15.23-.35.43-.61.57-.25.14-.56.22-.94.22s-.69-.07-.96-.21c-.27-.14-.48-.33-.64-.55-.16-.23-.28-.49-.36-.8-.08-.3-.12-.61-.12-.94,0-.3.04-.61.11-.9s.19-.56.35-.8c.16-.23.38-.42.62-.56.26-.14.56-.22.93-.22s.66.07.91.2c.26.14.47.32.63.55.16.23.29.49.37.78.08.29.12.6.12.9,0,.33-.04.63-.11.95l.02-.02ZM97.31,40.43h0c-.09-.46-.25-.87-.48-1.24-.23-.37-.54-.68-.93-.93s-.88-.36-1.46-.36c-.45,0-.87.08-1.24.26-.37.18-.7.41-.98.71-.28.3-.49.67-.64,1.09-.15.42-.23.88-.23,1.38.01.5.09.96.22,1.39.13.42.33.8.6,1.1.26.3.59.54.97.71.39.18.84.26,1.37.26.75,0,1.37-.19,1.86-.56.49-.38.81-.93.96-1.68h-1.07c-.09.43-.29.76-.59.97-.29.21-.67.32-1.12.32-.35,0-.67-.06-.93-.18-.27-.12-.48-.28-.66-.48-.18-.2-.29-.43-.38-.69s-.11-.54-.11-.82h4.93c.01-.4-.02-.82-.11-1.27ZM92.5,40.73h-.02c.01-.26.07-.49.16-.73.09-.23.22-.42.39-.6.16-.18.35-.3.59-.4.22-.09.48-.14.76-.14s.52.05.75.14c.23.09.42.23.59.4s.29.36.4.6c.11.23.15.47.18.73h-3.78ZM103.33,38.93h.01s-.02.01-.02.01c-.12-.2-.27-.36-.45-.49-.18-.13-.36-.23-.55-.32-.2-.08-.39-.14-.59-.18-.2-.04-.37-.05-.55-.05-.5,0-.94.09-1.32.27-.38.19-.69.43-.95.74-.25.32-.43.68-.56,1.09-.13.42-.19.86-.19,1.32s.06.91.19,1.32c.13.41.32.78.56,1.1s.56.56.95.75c.39.19.82.28,1.34.28.46,0,.88-.08,1.27-.25.39-.16.67-.42.84-.8h.02v.89h1.09v-9.1h-1.09v3.4ZM103.29,42.25v.02c-.08.29-.2.56-.36.8-.16.23-.37.42-.62.56-.26.14-.56.22-.93.22s-.66-.07-.91-.2c-.26-.14-.47-.32-.63-.55-.16-.23-.29-.49-.38-.78-.08-.29-.12-.6-.12-.9,0-.33.04-.63.11-.95.07-.3.18-.57.33-.82.15-.23.36-.43.61-.57.26-.14.56-.22.93-.22s.69.07.96.21c.27.14.48.33.64.55.16.23.29.49.36.8.07.3.12.61.12.94,0,.3-.04.61-.11.9ZM113.62,17.78c.42.28.74.64.97,1.09.22.45.37.97.44,1.54.07.57.12,1.15.15,1.74.01.17.03.37.05.6.01.23.03.46.06.7.02.24.06.47.11.69.05.22.13.41.22.56h1.73c-.17-.2-.3-.48-.4-.84-.1-.36-.17-.74-.22-1.15-.05-.41-.08-.81-.09-1.21-.01-.4-.03-.74-.05-1.01-.03-.49-.1-.95-.2-1.37-.1-.42-.26-.79-.48-1.12-.22-.32-.51-.59-.86-.79-.35-.21-.8-.35-1.33-.42v-.05c1.06-.21,1.86-.71,2.39-1.47.54-.77.81-1.67.81-2.72,0-.74-.13-1.38-.4-1.92-.27-.54-.63-.99-1.08-1.33-.45-.34-.98-.6-1.59-.77-.61-.17-1.25-.25-1.92-.25h-7.52v16.43h1.56v-7.29h5.94c.74-.03,1.31.09,1.74.37ZM105.95,16.08v-6.47h5.84c1.2,0,2.09.29,2.67.87.58.58.87,1.38.87,2.39,0,.51-.1.95-.29,1.35-.19.39-.45.72-.77,1-.32.28-.7.49-1.13.63-.43.15-.88.22-1.36.22h-5.84ZM88.69,39.46h-.01s-.02-.01-.02-.01v-1.39h-1.02v6.6h1.09v-2.93c0-.42.05-.8.13-1.12s.22-.61.41-.83c.19-.23.43-.4.74-.53.3-.13.68-.18,1.11-.18v-1.15c-.59-.01-1.07.11-1.45.36-.39.26-.7.66-.97,1.18ZM195.15,24.7l1.98-5.11h7.48l2,5.11h1.68l-6.44-16.43h-1.75l-6.6,16.43h1.66ZM200.9,9.84l3.18,8.42h-6.47l3.29-8.42ZM74.31,24.7V8.28h-1.56v13.9h-.05l-9.57-13.9h-1.75v16.43h1.56v-13.9h.05l9.57,13.9h1.75ZM102.08,23.37h-9.89v-6.49h9.16v-1.34h-9.16v-5.94h9.78v-1.34h-11.34v16.43h11.46v-1.33ZM61.81,38.93h-.01c-.25-.3-.56-.56-.95-.75-.38-.19-.82-.28-1.34-.28-.46,0-.88.08-1.27.25s-.67.43-.84.8h-.02v-.89h-1.09v9.1h1.09v-3.4h.02c.12.2.27.36.45.49.18.13.36.23.55.32.2.08.4.13.6.16s.39.05.54.05c.5,0,.94-.09,1.32-.27.38-.18.69-.42.95-.74.25-.3.43-.68.56-1.09.12-.42.19-.86.19-1.32s-.06-.91-.19-1.32c-.13-.42-.32-.78-.56-1.1ZM61.31,42.25c-.07.3-.18.57-.33.82-.15.23-.35.43-.61.57-.25.14-.56.22-.94.22s-.69-.07-.96-.21-.48-.33-.64-.55c-.16-.23-.28-.49-.36-.8-.08-.3-.12-.61-.12-.94,0-.3.04-.61.11-.9s.19-.56.35-.8c.16-.23.37-.42.62-.56.26-.14.56-.22.93-.22s.66.07.91.2c.26.14.47.32.63.55.16.23.29.49.38.78.08.29.12.6.12.9,0,.33-.04.63-.11.95l.02-.02ZM81.67,24.7h1.56v-15.09h5.73v-1.34h-13v1.34h5.71v15.09ZM57.86,8.28h-1.56v16.43h1.56V8.28ZM147.62,23.37h-9.89v-6.49h9.16v-1.34h-9.16v-5.94h9.78v-1.34h-11.34v16.43h11.46v-1.33ZM121.39,10.81h.05l9.57,13.9h1.75V8.28h-1.56v13.9h-.05l-9.57-13.9h-1.75v16.43h1.56v-13.9ZM86.44,40.43h0c-.09-.46-.25-.87-.48-1.24-.23-.37-.54-.68-.93-.93-.39-.25-.88-.36-1.46-.36-.45,0-.87.08-1.24.26s-.7.41-.98.71c-.28.3-.49.67-.64,1.09-.15.42-.23.88-.23,1.38.01.5.09.96.22,1.39.13.42.33.8.6,1.1.26.3.59.54.97.71.39.18.84.26,1.37.26.75,0,1.37-.19,1.86-.56.49-.38.81-.93.96-1.68h-1.07c-.09.43-.29.76-.59.97-.29.21-.67.32-1.12.32-.35,0-.67-.06-.93-.18-.27-.12-.48-.28-.66-.48s-.29-.43-.38-.69-.11-.54-.11-.82h4.93c.01-.4-.02-.82-.11-1.27ZM81.64,40.73h-.02c.01-.26.07-.49.16-.73.09-.23.22-.42.39-.6s.35-.3.59-.4c.22-.09.48-.14.76-.14s.52.05.75.14c.23.09.42.23.59.4s.29.36.4.6c.11.23.15.47.18.73h-3.78ZM77.18,43.46h-.02l-1.38-5.39h-1.18l-1.32,5.39h-.02l-1.5-5.39h-1.2l2.12,6.6h1.17l1.32-5.25h.02l1.35,5.25h1.15l2.1-6.6h-1.12l-1.48,5.39ZM69.06,38.91c-.27-.32-.61-.55-1-.74-.4-.18-.86-.27-1.38-.27s-.97.09-1.38.27c-.4.18-.74.42-1.01.74-.27.3-.48.68-.61,1.1-.13.42-.2.88-.2,1.36s.07.94.2,1.35c.13.41.34.78.61,1.09.27.32.61.55,1.01.73.4.18.86.26,1.38.26s.98-.08,1.38-.26c.4-.18.73-.42,1-.73.27-.3.48-.68.61-1.09.14-.42.2-.87.2-1.35s-.07-.94-.2-1.36c-.14-.42-.34-.78-.61-1.1ZM68.57,42.44c-.11.32-.26.57-.45.77-.19.21-.41.36-.66.48-.25.11-.52.16-.8.16s-.55-.06-.8-.16c-.25-.11-.47-.27-.66-.48s-.33-.47-.45-.77c-.11-.3-.16-.67-.16-1.07s.06-.75.16-1.07c.11-.32.26-.57.45-.78.19-.21.41-.38.66-.48.25-.11.52-.16.8-.16s.55.06.8.16c.25.11.47.27.66.48.19.21.33.47.45.78.12.32.16.67.16,1.07s-.06.75-.16,1.07ZM269.03,22.71c-.05-.41-.08-.81-.09-1.21-.01-.4-.03-.74-.05-1.01-.03-.49-.1-.95-.2-1.37-.1-.42-.26-.79-.48-1.12-.22-.32-.51-.59-.86-.79-.35-.21-.8-.35-1.33-.42v-.05c1.06-.21,1.86-.71,2.39-1.47.54-.77.81-1.67.81-2.72,0-.74-.13-1.38-.4-1.92-.27-.54-.63-.99-1.08-1.33-.45-.34-.98-.6-1.59-.77-.61-.17-1.25-.25-1.92-.25h-7.52v16.43h1.56v-7.29h5.94c.74-.03,1.31.09,1.74.37.42.28.74.64.97,1.09.22.45.37.97.44,1.54.07.57.12,1.15.15,1.74.01.17.03.37.05.6.01.23.03.46.06.7.02.24.06.47.11.69.05.22.13.41.22.56h1.73c-.17-.2-.3-.48-.4-.84-.1-.36-.17-.74-.22-1.15ZM265.47,15.86c-.43.15-.88.22-1.36.22h-5.84v-6.47h5.84c1.2,0,2.09.29,2.67.87.58.58.87,1.38.87,2.39,0,.51-.1.95-.29,1.35-.19.39-.45.72-.77,1-.32.28-.7.49-1.13.63ZM197.85,43.22l-.04-.04v-3.43c0-.4-.09-.71-.27-.96-.18-.25-.41-.43-.69-.56-.28-.14-.59-.22-.93-.27-.34-.05-.68-.07-1.01-.07-.36,0-.73.04-1.09.11-.36.07-.69.2-.97.36-.28.16-.53.4-.71.68-.19.28-.29.63-.32,1.05h1.82c.04-.35.15-.61.35-.76s.48-.23.84-.23c.16,0,.32,0,.46.04.14.02.26.06.38.13.11.06.19.15.26.27.06.12.09.27.09.47,0,.19-.05.33-.16.42-.12.09-.28.18-.48.22-.2.05-.43.09-.7.12-.26.02-.53.06-.81.11-.27.05-.54.11-.81.18s-.5.18-.71.33c-.21.14-.38.34-.5.59-.13.25-.2.55-.2.93,0,.34.06.63.18.88s.27.45.48.61c.2.16.45.28.71.35.27.08.56.12.88.12.41,0,.81-.06,1.2-.18s.73-.33,1.02-.62c0,.11.02.22.05.33.02.11.05.21.08.32h1.84c-.08-.14-.14-.34-.18-.61-.04-.27-.05-.56-.05-.86ZM195.96,42.52c-.02.18-.08.34-.18.5-.09.16-.23.3-.43.42s-.47.18-.83.18c-.14,0-.28-.01-.42-.04-.14-.02-.26-.07-.35-.13-.11-.06-.19-.15-.25-.26s-.09-.25-.09-.41c0-.18.03-.3.09-.42s.14-.2.23-.27c.09-.07.21-.13.34-.18s.27-.07.4-.11c.14-.02.29-.05.43-.06s.28-.04.41-.06.26-.06.38-.09c.12-.04.21-.09.29-.16v.68h.01c0,.09,0,.22-.04.4ZM211.39,38.85h0s-.02.01-.02.01c-.2-.33-.48-.56-.83-.74-.35-.16-.73-.25-1.11-.25-.48,0-.91.09-1.28.28-.36.19-.67.45-.91.76s-.42.68-.55,1.09c-.12.41-.19.84-.19,1.28s.06.9.19,1.32c.13.42.3.8.55,1.12s.55.59.93.77c.37.19.81.29,1.3.29.43,0,.82-.08,1.17-.23.34-.15.62-.41.83-.77h.02v.84h1.72v-9.1h-1.82v3.32ZM211.38,42.13c-.05.26-.14.48-.26.68s-.28.36-.48.48c-.2.12-.45.18-.75.18-.28,0-.52-.06-.73-.19-.2-.12-.36-.28-.49-.48-.13-.2-.22-.42-.29-.68-.07-.26-.09-.52-.09-.76,0-.27.02-.54.08-.78.06-.25.14-.47.27-.67.13-.2.29-.35.49-.47s.46-.18.75-.18.54.06.74.18c.2.12.35.27.48.47.13.19.21.41.26.67.05.25.08.52.08.78s-.02.54-.08.78h.02ZM204.92,38.62h0c-.18-.22-.42-.41-.74-.54-.3-.13-.7-.2-1.2-.2-.39,0-.76.08-1.12.26s-.67.46-.89.83h-.04v-.91h-1.72v6.6h1.82v-3.46c0-.67.11-1.16.33-1.45.22-.29.57-.45,1.07-.45.43,0,.74.13.9.4s.26.68.26,1.22v3.73h1.82v-4.05c0-.41-.04-.78-.11-1.11-.07-.33-.2-.62-.37-.86ZM188.65,44.65h1.82v-9.1h-1.82v9.1ZM189.47,24.7v-15.09h5.73v-1.34h-13v1.34h5.71v15.09h1.56ZM185.13,44.66h2v-1.97h-2v1.97ZM299.72,18.63c-.22-.48-.53-.88-.92-1.21-.39-.33-.84-.61-1.36-.83-.51-.22-1.06-.41-1.65-.56l-4-.99c-.34-.08-.66-.18-.95-.3s-.56-.28-.79-.48c-.23-.2-.41-.44-.54-.72-.13-.28-.2-.62-.2-1,0-.61.11-1.13.35-1.54.23-.41.53-.75.91-1,.38-.25.81-.44,1.31-.55.5-.12,1.02-.17,1.55-.17.58,0,1.14.08,1.67.24.53.16,1,.4,1.4.71.41.31.74.71.99,1.17.25.47.39,1.02.43,1.65h1.56c0-.84-.16-1.58-.49-2.22-.33-.64-.77-1.17-1.32-1.6-.55-.43-1.2-.75-1.93-.97-.74-.21-1.51-.32-2.32-.32-1.15,0-2.09.17-2.83.49-.74.33-1.32.73-1.74,1.21-.42.48-.71.98-.86,1.52-.15.54-.23,1.01-.23,1.4,0,.64.1,1.19.31,1.63.21.44.48.82.82,1.13.34.31.73.55,1.18.74.45.18.92.34,1.39.46l3.66.9c.38.09.77.21,1.17.36s.76.33,1.09.56c.33.23.6.51.81.85.21.34.31.74.31,1.2,0,.6-.15,1.11-.44,1.53-.29.42-.66.77-1.09,1.04-.44.27-.91.46-1.41.59s-.97.18-1.4.18c-.75,0-1.46-.07-2.12-.22-.66-.15-1.23-.39-1.71-.72-.48-.34-.86-.79-1.14-1.36-.28-.57-.41-1.27-.39-2.12h-1.56c-.05,1.01.09,1.88.4,2.6.31.72.76,1.31,1.35,1.77.58.46,1.29.8,2.12,1.02.83.22,1.73.33,2.69.33s1.79-.09,2.49-.26c.69-.18,1.27-.41,1.74-.69.47-.28.84-.6,1.1-.95.27-.35.48-.7.62-1.05.15-.34.24-.67.28-.98.04-.31.06-.55.06-.74,0-.67-.11-1.25-.33-1.73ZM277.85,8.28h-5.68v16.43h5.68c2.5-.06,4.38-.76,5.65-2.11,1.26-1.34,1.9-3.38,1.9-6.11s-.63-4.77-1.9-6.11c-1.27-1.34-3.15-2.04-5.65-2.11ZM283.44,19.64c-.26.87-.67,1.59-1.22,2.14-.55.55-1.25.95-2.1,1.21-.85.25-1.87.38-3.05.38h-3.34v-13.76h3.34c1.18,0,2.2.13,3.05.38.85.25,1.55.66,2.1,1.21.55.55.96,1.26,1.22,2.14.26.87.39,1.93.39,3.15s-.13,2.28-.39,3.15ZM182.98,38.38l-.04.04c-.21-.19-.47-.33-.76-.41s-.62-.13-.97-.13c-.46,0-.86.11-1.2.33-.34.22-.6.48-.8.76-.18-.41-.45-.69-.79-.86-.34-.16-.73-.25-1.14-.25s-.82.09-1.16.28-.62.45-.86.8h-.02v-.89h-1.71v6.6h1.82v-3.83c0-.33.05-.59.14-.78.09-.2.21-.35.34-.46s.27-.18.41-.22c.14-.04.26-.06.34-.06.29,0,.5.05.66.14s.26.22.32.39.09.34.11.53c0,.19.01.39.01.59v3.7h1.82v-3.68c0-.2.01-.41.05-.61.04-.2.09-.38.18-.54s.21-.28.37-.39c.15-.09.36-.14.62-.14s.46.05.61.13.26.2.34.34c.08.14.12.32.14.52s.02.4.02.62v3.74h1.82v-4.42c0-.42-.06-.78-.18-1.09-.12-.3-.28-.55-.49-.74ZM221.24,22.17h-.05l-9.57-13.9h-1.75v16.43h1.56v-13.9h.05l9.57,13.9h1.75V8.28h-1.56v13.9ZM246.9,8.28l-6.6,16.43h1.66l1.98-5.11h7.48l2,5.11h1.68l-6.44-16.43h-1.75ZM244.41,18.26l3.29-8.42,3.18,8.42h-6.47ZM231.9,8.28h-5.68v16.43h5.68c2.5-.06,4.38-.76,5.65-2.11,1.26-1.34,1.9-3.38,1.9-6.11s-.63-4.77-1.9-6.11c-1.27-1.34-3.15-2.04-5.65-2.11ZM237.49,19.64c-.26.87-.67,1.59-1.22,2.14-.55.55-1.25.95-2.1,1.21-.85.25-1.87.38-3.05.38h-3.34v-13.76h3.34c1.18,0,2.2.13,3.05.38.85.25,1.55.66,2.1,1.21.55.55.96,1.26,1.22,2.14.26.87.39,1.93.39,3.15s-.13,2.28-.39,3.15ZM145.13,40.33h.02c-.12-.46-.32-.87-.59-1.24-.27-.36-.61-.66-1.03-.88s-.9-.33-1.46-.33c-.5,0-.96.09-1.37.27-.41.18-.77.42-1.07.74-.29.32-.53.68-.69,1.1-.16.42-.25.88-.25,1.38s.08.97.23,1.41c.15.42.37.8.67,1.1.29.3.64.54,1.05.7.41.16.88.25,1.41.25.75,0,1.38-.18,1.91-.52.53-.34.91-.9,1.17-1.7h-1.59c-.06.2-.22.4-.48.59-.27.19-.57.27-.95.27-.52,0-.9-.13-1.17-.4-.27-.26-.42-.69-.45-1.28h4.76c.04-.52,0-1-.13-1.46ZM140.52,40.66h-.01c0-.13.04-.27.08-.43s.13-.32.25-.46.27-.27.46-.36.43-.15.73-.15c.45,0,.77.12.98.36.21.25.36.59.46,1.04h-2.94ZM146.39,44.66h1.82v-6.6h-1.82v6.6ZM177.55,24.76c.69-.18,1.27-.41,1.74-.69.47-.28.84-.6,1.1-.95.27-.35.48-.7.62-1.05.15-.34.24-.67.28-.98.04-.31.06-.55.06-.74,0-.67-.11-1.25-.33-1.73-.22-.48-.53-.88-.92-1.21-.39-.33-.84-.61-1.36-.83-.51-.22-1.06-.41-1.65-.56l-4-.99c-.34-.08-.66-.18-.95-.3-.3-.12-.56-.28-.79-.48-.23-.2-.41-.44-.54-.72-.13-.28-.2-.62-.2-1,0-.61.11-1.13.35-1.54.23-.41.53-.75.91-1,.38-.25.81-.44,1.31-.55.5-.12,1.02-.17,1.55-.17.58,0,1.14.08,1.67.24.53.16,1,.4,1.4.71.41.31.74.71.99,1.17.25.47.39,1.02.42,1.65h1.56c0-.84-.16-1.58-.49-2.22-.33-.64-.77-1.17-1.32-1.6-.55-.43-1.2-.75-1.93-.97-.74-.21-1.51-.32-2.32-.32-1.15,0-2.09.17-2.83.49-.74.33-1.32.73-1.74,1.21-.42.48-.71.98-.86,1.52-.15.54-.23,1.01-.23,1.4,0,.64.1,1.19.31,1.63.21.44.48.82.82,1.13.34.31.73.55,1.18.74.45.18.92.34,1.39.46l3.66.9c.38.09.77.21,1.17.36.4.15.76.33,1.09.56.33.23.6.51.81.85.21.34.31.74.31,1.2,0,.6-.15,1.11-.44,1.53-.29.42-.66.77-1.09,1.04-.44.27-.91.46-1.41.59s-.97.18-1.4.18c-.75,0-1.46-.07-2.12-.22-.66-.15-1.23-.39-1.71-.72-.48-.34-.86-.79-1.14-1.36-.28-.57-.41-1.27-.39-2.12h-1.56c-.05,1.01.09,1.88.4,2.6.31.72.76,1.31,1.35,1.77.58.46,1.29.8,2.12,1.02.83.22,1.73.33,2.69.33s1.79-.09,2.49-.26ZM131.11,38.85h0s-.02.01-.02.01c-.2-.33-.48-.56-.83-.74-.35-.16-.73-.25-1.11-.25-.48,0-.91.09-1.28.28-.36.19-.67.45-.91.76s-.42.68-.55,1.09c-.13.41-.19.84-.19,1.28s.06.9.19,1.32c.12.42.3.8.55,1.12s.55.59.93.77c.38.19.81.29,1.3.29.43,0,.82-.08,1.17-.23.34-.15.62-.41.83-.77h.02v.84h1.72v-9.1h-1.82v3.32ZM131.1,42.13c-.05.26-.14.48-.26.68s-.28.36-.48.48-.45.18-.75.18c-.28,0-.52-.06-.73-.19-.2-.12-.36-.28-.49-.48-.13-.2-.22-.42-.28-.68s-.09-.52-.09-.76c0-.27.02-.54.08-.78s.14-.47.27-.67c.12-.2.28-.35.49-.47s.46-.18.75-.18.54.06.74.18.35.27.48.47c.12.19.21.41.26.67s.08.52.08.78-.02.54-.08.78h.01ZM137.49,38h-.01c-.21.06-.41.15-.6.28-.19.12-.35.27-.49.45s-.26.36-.34.56h-.02v-1.22h-1.72v6.6h1.82v-2.98c0-.29.04-.57.09-.83.06-.26.16-.48.3-.67s.33-.34.55-.46c.22-.12.52-.16.84-.16.11,0,.22,0,.34.02.12.01.22.02.3.05v-1.69c-.14-.05-.28-.06-.4-.06-.23,0-.45.04-.67.11ZM146.39,37.04h1.82v-1.49h-1.82v1.49ZM119.67,43.48v-.02h-.02l-1.92-5.39h-1.23l2.61,6.56-.45,1.11c-.08.2-.19.35-.34.46-.15.11-.34.16-.55.16-.08,0-.19-.01-.32-.05s-.23-.07-.33-.11v1c.12.05.25.07.38.09.13.01.26.02.39.02.23,0,.45-.04.63-.09s.35-.16.49-.3c.14-.14.28-.32.41-.54s.25-.49.38-.82l2.87-7.47h-1.15l-1.85,5.39ZM171.39,38.84c-.29-.3-.66-.54-1.08-.7-.42-.16-.89-.25-1.41-.25s-.98.08-1.41.25c-.42.16-.77.4-1.07.7-.29.3-.53.67-.69,1.1-.16.43-.25.9-.25,1.44s.08,1.01.25,1.43.39.78.69,1.09c.29.3.66.54,1.07.69.41.15.88.25,1.41.25s.98-.08,1.41-.25c.42-.16.78-.4,1.08-.69.29-.3.53-.67.69-1.09.16-.42.25-.9.25-1.43s-.08-1.01-.25-1.44c-.16-.43-.39-.8-.69-1.1ZM170.43,42.14c-.05.25-.14.48-.26.68-.13.2-.29.36-.49.48-.21.12-.47.18-.77.18s-.56-.06-.76-.18-.36-.28-.49-.48c-.12-.2-.21-.42-.26-.68-.05-.25-.08-.5-.08-.77s.02-.53.08-.77c.05-.26.14-.48.26-.68.13-.2.29-.35.49-.48s.46-.19.76-.19.56.06.77.19c.21.12.37.28.49.48.12.2.21.42.26.68s.08.52.08.77-.02.52-.08.77ZM154.76,41.22v.02c-.19-.14-.41-.26-.66-.34-.25-.08-.5-.15-.77-.22-.26-.06-.5-.12-.75-.16s-.47-.11-.66-.18c-.19-.06-.35-.14-.47-.25s-.18-.23-.18-.4c0-.14.04-.25.11-.33s.15-.14.25-.19.21-.07.33-.08c.12-.01.23-.02.33-.02.33,0,.6.06.84.19.23.13.37.36.4.7h1.72c-.04-.41-.14-.75-.32-1.02s-.4-.48-.66-.64c-.27-.16-.56-.28-.9-.34-.34-.07-.68-.11-1.04-.11s-.7.04-1.04.09c-.34.06-.64.18-.91.33-.27.15-.49.37-.66.64s-.25.62-.25,1.04c0,.29.06.54.18.74.12.2.28.36.47.49.2.13.42.23.67.32s.5.15.77.21c.64.14,1.15.27,1.51.41s.54.34.54.61c0,.16-.04.29-.12.4-.08.11-.18.19-.29.26-.12.06-.25.11-.39.14-.14.04-.27.05-.4.05-.18,0-.35-.02-.52-.06-.16-.05-.32-.11-.45-.2s-.23-.2-.32-.34c-.08-.14-.12-.3-.12-.5h-1.72c.01.45.12.81.3,1.1.19.29.42.53.7.7.28.18.61.3.97.39.36.08.74.12,1.12.12s.74-.04,1.1-.11c.36-.07.68-.2.96-.37.28-.18.5-.41.68-.7s.26-.66.26-1.09c0-.3-.06-.56-.18-.77s-.28-.39-.47-.53ZM164.18,38h-.01c-.21.06-.41.15-.6.28-.19.12-.35.27-.49.45s-.26.36-.34.56h-.02v-1.22h-1.72v6.6h1.82v-2.98c0-.29.04-.57.09-.83.06-.26.16-.48.3-.67s.33-.34.55-.46c.23-.11.52-.16.84-.16.11,0,.22,0,.34.02.12.01.22.02.3.05v-1.69c-.14-.05-.28-.06-.4-.06-.23,0-.45.04-.67.11ZM158.79,36.09h-1.83v1.98h-1.1v1.21h1.1v3.89c0,.33.06.6.16.81.11.2.26.36.46.47.19.11.41.19.67.22.26.04.52.06.8.06.18,0,.36,0,.55-.01.19,0,.36-.02.52-.05v-1.41c-.08.01-.18.04-.27.04s-.19.01-.29.01c-.3,0-.52-.05-.61-.15-.11-.11-.15-.3-.15-.61v-3.27h1.32v-1.21h-1.32v-1.98ZM161.17,8.28h-13v1.34h5.71v15.09h1.56v-15.09h5.73v-1.34Z" fill="#283533" stroke-width="0"/>
</svg>